<svg version="1.1" xmlns="http://www.w3.org/2000/svg" xmlns:xlink="http://www.w3.org/1999/xlink" width="564" height="1843"><desc>title%20AMPS%20sequence%0A%0Aparticipant%20RabbitMQ%0Aparticipant%20AMPS%0Aparticipant%20Workload%0A%0A%5B-%3ERabbitMQ%3A%20Publish%5Cnmessage%0ARabbitMQ-%3E(1)AMPS%3A%20Queue%5Cnmessage%0Aactivate%20AMPS%0Aspace%20-3%0AAMPS--%3E(1)RabbitMQ%3A%20Ack%20message%0AAMPS-%3EAMPS%3A%20Register%20job%5Cnin%20local%20manifest%0AAMPS-%3E(1)Workload%3A%20Send%20job%20POST%20request%0Aactivate%20AMPS%0Aactivate%20Workload%0Aspace%20-3%0AWorkload--%3E(1)AMPS%3A%20Ack%20job%20%0Aentryspacing%203%0Agroup%20success%0AWorkload-%3E(1)AMPS%3A%20Job%20successful%0Adeactivate%20Workload%0AAMPS-%3EAMPS%3A%20Garbage%20collect%20job%5Cnand%20accept%20new%20ones%0Adeactivate%20AMPS%0Adeactivate%20AMPS%0Aend%0Agroup%20failure%0Aactivate%20AMPS%0Aactivate%20AMPS%0Aactivate%20Workload%0AWorkload-%3E(1)AMPS%3A%20Requeue%0Adeactivate%20AMPS%0Adeactivate%20Workload%0AAMPS-%3E(1)RabbitMQ%3A%20Re-publish%5Cnmessage%0AAMPS-%3EAMPS%3A%20Garbage%20collect%20job%5Cnand%20accept%20new%20ones%0Adeactivate%20AMPS%0Adeactivate%20AMPS%0Aend%0A%0Agroup%20timeout%0Aactivate%20AMPS%0Aactivate%20AMPS%0Aactivate%20Workload%0AAMPS-%3EAMPS%3A%20Reconcile%20TTL%5Cnand%20timeout%20job%0Adeactivate%20AMPS%0A%0AAMPS-%3E(1)RabbitMQ%3A%20Re-publish%5Cnmessage%0AAMPS-%3EAMPS%3A%20Garbage%20collect%20job%5Cnand%20accept%20new%20ones%0Adeactivate%20AMPS%0Adeactivate%20AMPS%0Aend%0Adeactivate%20Workload%0A</desc><defs/><g><g/><g/><g/><g/><g/><g/><g/><g/><g/><g/><g/><g/><g/><g/><g/><g/><g/><g/><g/><g/><g/><g/><g/><g><rect fill="white" stroke="none" x="0" y="0" width="564" height="1843"/></g><g><text fill="black" stroke="none" font-family="sans-serif" font-size="16.5pt" font-style="normal" font-weight="normal" text-decoration="normal" x="195.10119237177736" y="22.6179738" text-anchor="start" dominant-baseline="alphabetic" xml:space="preserve">AMPS sequence</text></g><g/><g><path fill="none" stroke="black" paint-order="fill stroke markers" d=" M 113.71572297529298 88.511670804 L 113.71572297529298 1843.6778217940855" stroke-miterlimit="10" stroke-width="1.2565541" stroke-dasharray="11.598960923076923,5.0262164"/><path fill="none" stroke="black" paint-order="fill stroke markers" d=" M 258.4481085482422 88.511670804 L 258.4481085482422 1843.6778217940855" stroke-miterlimit="10" stroke-width="1.2565541" stroke-dasharray="11.598960923076923,5.0262164"/><path fill="none" stroke="black" paint-order="fill stroke markers" d=" M 489.1091417953125 88.511670804 L 489.1091417953125 1843.6778217940855" stroke-miterlimit="10" stroke-width="1.2565541" stroke-dasharray="11.598960923076923,5.0262164"/></g><g><path fill="none" stroke="none"/><g><path fill="white" stroke="black" paint-order="fill stroke markers" d=" M 61.58872218093946 47.799317964000004 L 165.84272376964648 47.799317964000004 L 165.84272376964648 88.511670804 L 61.58872218093946 88.511670804 L 61.58872218093946 47.799317964000004 Z" stroke-miterlimit="10" stroke-width="2.4125838720000004" stroke-dasharray=""/></g><g><g/><text fill="black" stroke="none" font-family="sans-serif" font-size="11pt" font-style="normal" font-weight="normal" text-decoration="normal" x="77.94905656293946" y="73.43302160400002" text-anchor="start" dominant-baseline="alphabetic" xml:space="preserve">RabbitMQ</text></g><path fill="none" stroke="none"/><g><path fill="white" stroke="black" paint-order="fill stroke markers" d=" M 221.6544417230049 47.799317964000004 L 295.2417753734795 47.799317964000004 L 295.2417753734795 88.511670804 L 221.6544417230049 88.511670804 L 221.6544417230049 47.799317964000004 Z" stroke-miterlimit="10" stroke-width="2.4125838720000004" stroke-dasharray=""/></g><g><g/><text fill="black" stroke="none" font-family="sans-serif" font-size="11pt" font-style="normal" font-weight="normal" text-decoration="normal" x="238.0147761050049" y="73.43302160400002" text-anchor="start" dominant-baseline="alphabetic" xml:space="preserve">AMPS</text></g><path fill="none" stroke="none"/><g><path fill="white" stroke="black" paint-order="fill stroke markers" d=" M 438.48214100095896 47.799317964000004 L 539.736142589666 47.799317964000004 L 539.736142589666 88.511670804 L 438.48214100095896 88.511670804 L 438.48214100095896 47.799317964000004 Z" stroke-miterlimit="10" stroke-width="2.4125838720000004" stroke-dasharray=""/></g><g><g/><text fill="black" stroke="none" font-family="sans-serif" font-size="11pt" font-style="normal" font-weight="normal" text-decoration="normal" x="454.842475382959" y="73.43302160400002" text-anchor="start" dominant-baseline="alphabetic" xml:space="preserve">Workload</text></g></g><g><path fill="white" stroke="black" paint-order="fill stroke markers" d=" M 250.90878394824222 221.8131943872831 L 265.9874331482422 221.8131943872831 L 265.9874331482422 723.0962210018237 L 250.90878394824222 723.0962210018237 L 250.90878394824222 221.8131943872831" stroke-miterlimit="10" stroke-width="1.2565541" stroke-dasharray=""/><path fill="white" stroke="black" paint-order="fill stroke markers" d=" M 258.4481085482422 371.9485551071888 L 273.5267577482422 371.9485551071888 L 273.5267577482422 723.0962210018237 L 258.4481085482422 723.0962210018237 L 258.4481085482422 371.9485551071888" stroke-miterlimit="10" stroke-width="1.2565541" stroke-dasharray=""/><path fill="white" stroke="black" paint-order="fill stroke markers" d=" M 481.5698171953125 387.02720430718875 L 496.6484663953125 387.02720430718875 L 496.6484663953125 585.8805132818237 L 481.5698171953125 585.8805132818237 L 481.5698171953125 387.02720430718875" stroke-miterlimit="10" stroke-width="1.2565541" stroke-dasharray=""/><path fill="white" stroke="black" paint-order="fill stroke markers" d=" M 250.90878394824222 876.8984428418237 L 265.9874331482422 876.8984428418237 L 265.9874331482422 1210.6712621915024 L 250.90878394824222 1210.6712621915024 L 250.90878394824222 876.8984428418237" stroke-miterlimit="10" stroke-width="1.2565541" stroke-dasharray=""/><path fill="white" stroke="black" paint-order="fill stroke markers" d=" M 258.4481085482422 876.8984428418237 L 273.5267577482422 876.8984428418237 L 273.5267577482422 974.2331765489192 L 258.4481085482422 974.2331765489192 L 258.4481085482422 876.8984428418237" stroke-miterlimit="10" stroke-width="1.2565541" stroke-dasharray=""/><path fill="white" stroke="black" paint-order="fill stroke markers" d=" M 481.5698171953125 876.8984428418237 L 496.6484663953125 876.8984428418237 L 496.6484663953125 959.1545273489193 L 481.5698171953125 959.1545273489193 L 481.5698171953125 876.8984428418237" stroke-miterlimit="10" stroke-width="1.2565541" stroke-dasharray=""/><path fill="white" stroke="black" paint-order="fill stroke markers" d=" M 250.90878394824222 1364.4734840315023 L 265.9874331482422 1364.4734840315023 L 265.9874331482422 1723.0486281940855 L 250.90878394824222 1723.0486281940855 L 250.90878394824222 1364.4734840315023" stroke-miterlimit="10" stroke-width="1.2565541" stroke-dasharray=""/><path fill="white" stroke="black" paint-order="fill stroke markers" d=" M 258.4481085482422 1364.4734840315023 L 273.5267577482422 1364.4734840315023 L 273.5267577482422 1486.6105425515022 L 258.4481085482422 1486.6105425515022 L 258.4481085482422 1364.4734840315023" stroke-miterlimit="10" stroke-width="1.2565541" stroke-dasharray=""/><path fill="white" stroke="black" paint-order="fill stroke markers" d=" M 481.5698171953125 1364.4734840315023 L 496.6484663953125 1364.4734840315023 L 496.6484663953125 1790.9025495940855 L 481.5698171953125 1790.9025495940855 L 481.5698171953125 1364.4734840315023" stroke-miterlimit="10" stroke-width="1.2565541" stroke-dasharray=""/><g><g><rect fill="white" stroke="none" x="25.382392820000003" y="118.668969204" width="56.840260409414064" height="19.602243960000003"/></g><g><rect fill="white" stroke="none" x="25.382392820000003" y="133.747618404" width="70.49026193529296" height="19.602243960000003"/></g><text fill="black" stroke="none" font-family="sans-serif" font-size="11pt" font-style="normal" font-weight="normal" text-decoration="normal" x="27.644190200000004" y="132.239753484" text-anchor="start" dominant-baseline="alphabetic" xml:space="preserve">Publish</text><text fill="black" stroke="none" font-family="sans-serif" font-size="11pt" font-style="normal" font-weight="normal" text-decoration="normal" x="27.644190200000004" y="147.318402684" text-anchor="start" dominant-baseline="alphabetic" xml:space="preserve">message</text></g><g><path fill="none" stroke="black" paint-order="fill stroke markers" d=" M 7.5393246000000005 153.34986236400002 L 101.30096846729298 153.34986236400002" stroke-miterlimit="10" stroke-width="1.2565541" stroke-dasharray=""/><g transform="translate(113.71572297529298,153.34986236400002) translate(-113.71572297529298,-153.34986236400002)"><path fill="black" stroke="none" paint-order="stroke fill markers" d=" M 101.15018197529298 147.06709186400002 L 113.71572297529298 153.34986236400002 L 101.15018197529298 159.63263286400002 Z"/></g></g><g><g><rect fill="white" stroke="none" x="147.06712249412112" y="175.967836164" width="52.74026193529297" height="19.602243960000003"/></g><g><rect fill="white" stroke="none" x="147.06712249412112" y="191.046485364" width="70.49026193529296" height="19.602243960000003"/></g><text fill="black" stroke="none" font-family="sans-serif" font-size="11pt" font-style="normal" font-weight="normal" text-decoration="normal" x="149.3289198741211" y="189.538620444" text-anchor="start" dominant-baseline="alphabetic" xml:space="preserve">Queue</text><text fill="black" stroke="none" font-family="sans-serif" font-size="11pt" font-style="normal" font-weight="normal" text-decoration="normal" x="149.3289198741211" y="204.617269644" text-anchor="start" dominant-baseline="alphabetic" xml:space="preserve">message</text></g><g><path fill="none" stroke="black" paint-order="fill stroke markers" d=" M 113.71572297529298 206.7345451872831 L 238.56834088276904 220.4568778896613" stroke-miterlimit="10" stroke-width="1.2565541" stroke-dasharray=""/><g transform="translate(250.90878394824222,221.8131943872831) rotate(6.272104379905086,0,0) translate(-250.90878394824222,-221.8131943872831)"><path fill="black" stroke="none" paint-order="stroke fill markers" d=" M 238.34324294824222 215.5304238872831 L 250.90878394824222 221.8131943872831 L 238.34324294824222 228.0959648872831 Z"/><g transform="rotate(-6.272104379905086,0,0)"/></g></g><g><g><rect fill="white" stroke="none" x="131.558791195293" y="221.8131943872831" width="101.50692453294921" height="19.602243960000003"/></g><text fill="black" stroke="none" font-family="sans-serif" font-size="11pt" font-style="normal" font-weight="normal" text-decoration="normal" x="133.820588575293" y="235.3839786672831" text-anchor="start" dominant-baseline="alphabetic" xml:space="preserve">Ack message</text></g><g><path fill="none" stroke="black" paint-order="fill stroke markers" d=" M 250.90878394824222 239.20574775910296 L 126.05616604076616 252.9280804614812" stroke-miterlimit="10" stroke-width="1.2565541" stroke-dasharray="6.03145968"/><g transform="translate(113.71572297529298,254.28439695910296) rotate(-6.272104379905086,0,0) translate(-113.71572297529298,-254.28439695910296)"><path fill="black" stroke="none" paint-order="stroke fill markers" d=" M 126.28126397529297 248.00162645910297 L 113.71572297529298 254.28439695910296 L 126.28126397529297 260.56716745910296 Z"/><g transform="rotate(6.272104379905086,0,0)"/></g></g><g><g><rect fill="white" stroke="none" x="283.83050136824215" y="276.90237075910295" width="92.00692453294921" height="19.602243960000003"/></g><g><rect fill="white" stroke="none" x="283.83050136824215" y="291.9810199591029" width="125.70692911058593" height="19.602243960000003"/></g><text fill="black" stroke="none" font-family="sans-serif" font-size="11pt" font-style="normal" font-weight="normal" text-decoration="normal" x="286.0922987482422" y="290.47315503910295" text-anchor="start" dominant-baseline="alphabetic" xml:space="preserve">Register job</text><text fill="black" stroke="none" font-family="sans-serif" font-size="11pt" font-style="normal" font-weight="normal" text-decoration="normal" x="286.0922987482422" y="305.5518042391029" text-anchor="start" dominant-baseline="alphabetic" xml:space="preserve">in local manifest</text></g><g><path fill="none" stroke="black" paint-order="fill stroke markers" d=" M 265.9874331482422 311.58326391910293 L 326.3020299482422 311.58326391910293 L 326.3020299482422 331.18550787910294 L 278.4021876562422 331.18550787910294" stroke-miterlimit="10" stroke-width="1.2565541" stroke-dasharray=""/><g transform="translate(265.9874331482422,331.18550787910294) translate(-265.9874331482422,-331.18550787910294)"><path fill="black" stroke="none" paint-order="stroke fill markers" d=" M 278.5529741482422 324.9027373791029 L 265.9874331482422 331.18550787910294 L 278.5529741482422 337.46827837910297 Z"/></g></g><g><g><rect fill="white" stroke="none" x="291.3698259682422" y="353.80348167910296" width="172.35692300707032" height="19.602243960000003"/></g><text fill="black" stroke="none" font-family="sans-serif" font-size="11pt" font-style="normal" font-weight="normal" text-decoration="normal" x="293.6316233482422" y="367.374265959103" text-anchor="start" dominant-baseline="alphabetic" xml:space="preserve">Send job POST request</text></g><g><path fill="none" stroke="black" paint-order="fill stroke markers" d=" M 273.5267577482422 371.9485551071888 L 469.18754295523337 386.1297556248795" stroke-miterlimit="10" stroke-width="1.2565541" stroke-dasharray=""/><g transform="translate(481.5698171953125,387.02720430718875) rotate(4.145463492446581,0,0) translate(-481.5698171953125,-387.02720430718875)"><path fill="black" stroke="none" paint-order="stroke fill markers" d=" M 469.0042761953125 380.7444338071887 L 481.5698171953125 387.02720430718875 L 469.0042761953125 393.3099748071888 Z"/><g transform="rotate(-4.145463492446581,0,0)"/></g></g><g><g><rect fill="white" stroke="none" x="346.2531572670703" y="387.0272043071887" width="62.590260409414064" height="19.602243960000003"/></g><text fill="black" stroke="none" font-family="sans-serif" font-size="11pt" font-style="normal" font-weight="normal" text-decoration="normal" x="348.51495464707034" y="400.59798858718875" text-anchor="start" dominant-baseline="alphabetic" xml:space="preserve">Ack job </text></g><g><path fill="none" stroke="black" paint-order="fill stroke markers" d=" M 481.5698171953125 401.1944161244047 L 285.9090319883213 415.37561664209545" stroke-miterlimit="10" stroke-width="1.2565541" stroke-dasharray="6.03145968"/><g transform="translate(273.5267577482422,416.2730653244047) rotate(-4.145463492446581,0,0) translate(-273.5267577482422,-416.2730653244047)"><path fill="black" stroke="none" paint-order="stroke fill markers" d=" M 286.0922987482422 409.99029482440466 L 273.5267577482422 416.2730653244047 L 286.0922987482422 422.5558358244047 Z"/><g transform="rotate(4.145463492446581,0,0)"/></g></g><g><g><rect fill="white" stroke="none" x="323.65315497825196" y="570.0752871644047" width="107.79026498705078" height="19.602243960000003"/></g><text fill="black" stroke="none" font-family="sans-serif" font-size="11pt" font-style="normal" font-weight="normal" text-decoration="normal" x="325.914952358252" y="583.6460714444047" text-anchor="start" dominant-baseline="alphabetic" xml:space="preserve">Job successful</text></g><g><path fill="none" stroke="black" paint-order="fill stroke markers" d=" M 481.5698171953125 585.8805132818237 L 285.9090319883213 600.0617137995145" stroke-miterlimit="10" stroke-width="1.2565541" stroke-dasharray=""/><g transform="translate(273.5267577482422,600.9591624818237) rotate(-4.145463492446581,0,0) translate(-273.5267577482422,-600.9591624818237)"><path fill="black" stroke="none" paint-order="stroke fill markers" d=" M 286.0922987482422 594.6763919818237 L 273.5267577482422 600.9591624818237 L 286.0922987482422 607.2419329818237 Z"/><g transform="rotate(4.145463492446581,0,0)"/></g></g><g><g><rect fill="white" stroke="none" x="291.36982596824214" y="668.8130838818237" width="147.34026040941407" height="19.602243960000003"/></g><g><rect fill="white" stroke="none" x="291.36982596824214" y="683.8917330818236" width="160.64026346117188" height="19.602243960000003"/></g><text fill="black" stroke="none" font-family="sans-serif" font-size="11pt" font-style="normal" font-weight="normal" text-decoration="normal" x="293.63162334824216" y="682.3838681618237" text-anchor="start" dominant-baseline="alphabetic" xml:space="preserve">Garbage collect job</text><text fill="black" stroke="none" font-family="sans-serif" font-size="11pt" font-style="normal" font-weight="normal" text-decoration="normal" x="293.63162334824216" y="697.4625173618236" text-anchor="start" dominant-baseline="alphabetic" xml:space="preserve">and accept new ones</text></g><g><path fill="none" stroke="black" paint-order="fill stroke markers" d=" M 273.5267577482422 703.4939770418237 L 333.8413545482422 703.4939770418237 L 333.8413545482422 723.0962210018237 L 285.94151225624216 723.0962210018237" stroke-miterlimit="10" stroke-width="1.2565541" stroke-dasharray=""/><g transform="translate(273.5267577482422,723.0962210018237) translate(-273.5267577482422,-723.0962210018237)"><path fill="black" stroke="none" paint-order="stroke fill markers" d=" M 286.0922987482422 716.8134505018237 L 273.5267577482422 723.0962210018237 L 286.0922987482422 729.3789915018236 Z"/></g></g><g><g><rect fill="white" stroke="none" x="343.01148856589845" y="944.7523642418237" width="69.07359781175781" height="19.602243960000003"/></g><text fill="black" stroke="none" font-family="sans-serif" font-size="11pt" font-style="normal" font-weight="normal" text-decoration="normal" x="345.27328594589846" y="958.3231485218237" text-anchor="start" dominant-baseline="alphabetic" xml:space="preserve">Requeue</text></g><g><path fill="none" stroke="black" paint-order="fill stroke markers" d=" M 481.5698171953125 959.1545273489193 L 285.9090319883213 973.33572786661" stroke-miterlimit="10" stroke-width="1.2565541" stroke-dasharray=""/><g transform="translate(273.5267577482422,974.2331765489192) rotate(-4.145463492446581,0,0) translate(-273.5267577482422,-974.2331765489192)"><path fill="black" stroke="none" paint-order="stroke fill markers" d=" M 286.0922987482422 967.9504060489193 L 273.5267577482422 974.2331765489192 L 286.0922987482422 980.5159470489192 Z"/><g transform="rotate(4.145463492446581,0,0)"/></g></g><g><g><rect fill="white" stroke="none" x="141.59212402000003" y="1042.087097948919" width="81.44025888353515" height="19.602243960000003"/></g><g><rect fill="white" stroke="none" x="141.59212402000003" y="1057.165747148919" width="70.49026193529296" height="19.602243960000003"/></g><text fill="black" stroke="none" font-family="sans-serif" font-size="11pt" font-style="normal" font-weight="normal" text-decoration="normal" x="143.85392140000002" y="1055.657882228919" text-anchor="start" dominant-baseline="alphabetic" xml:space="preserve">Re-publish</text><text fill="black" stroke="none" font-family="sans-serif" font-size="11pt" font-style="normal" font-weight="normal" text-decoration="normal" x="143.85392140000002" y="1070.736531428919" text-anchor="start" dominant-baseline="alphabetic" xml:space="preserve">message</text></g><g><path fill="none" stroke="black" paint-order="fill stroke markers" d=" M 250.90878394824222 1073.4555544715024 L 126.05616604076616 1087.1778871738807" stroke-miterlimit="10" stroke-width="1.2565541" stroke-dasharray=""/><g transform="translate(113.71572297529298,1088.5342036715024) rotate(-6.272104379905086,0,0) translate(-113.71572297529298,-1088.5342036715024)"><path fill="black" stroke="none" paint-order="stroke fill markers" d=" M 126.28126397529297 1082.2514331715024 L 113.71572297529298 1088.5342036715024 L 126.28126397529297 1094.8169741715024 Z"/><g transform="rotate(6.272104379905086,0,0)"/></g></g><g><g><rect fill="white" stroke="none" x="283.83050136824215" y="1156.3881250715024" width="147.34026040941407" height="19.602243960000003"/></g><g><rect fill="white" stroke="none" x="283.83050136824215" y="1171.4667742715023" width="160.64026346117188" height="19.602243960000003"/></g><text fill="black" stroke="none" font-family="sans-serif" font-size="11pt" font-style="normal" font-weight="normal" text-decoration="normal" x="286.0922987482422" y="1169.9589093515024" text-anchor="start" dominant-baseline="alphabetic" xml:space="preserve">Garbage collect job</text><text fill="black" stroke="none" font-family="sans-serif" font-size="11pt" font-style="normal" font-weight="normal" text-decoration="normal" x="286.0922987482422" y="1185.0375585515023" text-anchor="start" dominant-baseline="alphabetic" xml:space="preserve">and accept new ones</text></g><g><path fill="none" stroke="black" paint-order="fill stroke markers" d=" M 265.9874331482422 1191.0690182315025 L 326.3020299482422 1191.0690182315025 L 326.3020299482422 1210.6712621915024 L 278.4021876562422 1210.6712621915024" stroke-miterlimit="10" stroke-width="1.2565541" stroke-dasharray=""/><g transform="translate(265.9874331482422,1210.6712621915024) translate(-265.9874331482422,-1210.6712621915024)"><path fill="black" stroke="none" paint-order="stroke fill markers" d=" M 278.5529741482422 1204.3884916915024 L 265.9874331482422 1210.6712621915024 L 278.5529741482422 1216.9540326915023 Z"/></g></g><g><g><rect fill="white" stroke="none" x="291.36982596824214" y="1432.3274054315023" width="105.20692911058593" height="19.602243960000003"/></g><g><rect fill="white" stroke="none" x="291.36982596824214" y="1447.4060546315022" width="121.04026498705078" height="19.602243960000003"/></g><text fill="black" stroke="none" font-family="sans-serif" font-size="11pt" font-style="normal" font-weight="normal" text-decoration="normal" x="293.63162334824216" y="1445.8981897115023" text-anchor="start" dominant-baseline="alphabetic" xml:space="preserve">Reconcile TTL</text><text fill="black" stroke="none" font-family="sans-serif" font-size="11pt" font-style="normal" font-weight="normal" text-decoration="normal" x="293.63162334824216" y="1460.9768389115022" text-anchor="start" dominant-baseline="alphabetic" xml:space="preserve">and timeout job</text></g><g><path fill="none" stroke="black" paint-order="fill stroke markers" d=" M 273.5267577482422 1467.0082985915024 L 333.8413545482422 1467.0082985915024 L 333.8413545482422 1486.6105425515022 L 285.94151225624216 1486.6105425515022" stroke-miterlimit="10" stroke-width="1.2565541" stroke-dasharray=""/><g transform="translate(273.5267577482422,1486.6105425515022) translate(-273.5267577482422,-1486.6105425515022)"><path fill="black" stroke="none" paint-order="stroke fill markers" d=" M 286.0922987482422 1480.3277720515023 L 273.5267577482422 1486.6105425515022 L 286.0922987482422 1492.8933130515022 Z"/></g></g><g><g><rect fill="white" stroke="none" x="141.59212402000003" y="1554.4644639515022" width="81.44025888353515" height="19.602243960000003"/></g><g><rect fill="white" stroke="none" x="141.59212402000003" y="1569.5431131515022" width="70.49026193529296" height="19.602243960000003"/></g><text fill="black" stroke="none" font-family="sans-serif" font-size="11pt" font-style="normal" font-weight="normal" text-decoration="normal" x="143.85392140000002" y="1568.0352482315022" text-anchor="start" dominant-baseline="alphabetic" xml:space="preserve">Re-publish</text><text fill="black" stroke="none" font-family="sans-serif" font-size="11pt" font-style="normal" font-weight="normal" text-decoration="normal" x="143.85392140000002" y="1583.1138974315022" text-anchor="start" dominant-baseline="alphabetic" xml:space="preserve">message</text></g><g><path fill="none" stroke="black" paint-order="fill stroke markers" d=" M 250.90878394824222 1585.8329204740855 L 126.05616604076616 1599.5552531764638" stroke-miterlimit="10" stroke-width="1.2565541" stroke-dasharray=""/><g transform="translate(113.71572297529298,1600.9115696740855) rotate(-6.272104379905086,0,0) translate(-113.71572297529298,-1600.9115696740855)"><path fill="black" stroke="none" paint-order="stroke fill markers" d=" M 126.28126397529297 1594.6287991740855 L 113.71572297529298 1600.9115696740855 L 126.28126397529297 1607.1943401740855 Z"/><g transform="rotate(6.272104379905086,0,0)"/></g></g><g><g><rect fill="white" stroke="none" x="283.83050136824215" y="1668.7654910740855" width="147.34026040941407" height="19.602243960000003"/></g><g><rect fill="white" stroke="none" x="283.83050136824215" y="1683.8441402740855" width="160.64026346117188" height="19.602243960000003"/></g><text fill="black" stroke="none" font-family="sans-serif" font-size="11pt" font-style="normal" font-weight="normal" text-decoration="normal" x="286.0922987482422" y="1682.3362753540855" text-anchor="start" dominant-baseline="alphabetic" xml:space="preserve">Garbage collect job</text><text fill="black" stroke="none" font-family="sans-serif" font-size="11pt" font-style="normal" font-weight="normal" text-decoration="normal" x="286.0922987482422" y="1697.4149245540855" text-anchor="start" dominant-baseline="alphabetic" xml:space="preserve">and accept new ones</text></g><g><path fill="none" stroke="black" paint-order="fill stroke markers" d=" M 265.9874331482422 1703.4463842340856 L 326.3020299482422 1703.4463842340856 L 326.3020299482422 1723.0486281940855 L 278.4021876562422 1723.0486281940855" stroke-miterlimit="10" stroke-width="1.2565541" stroke-dasharray=""/><g transform="translate(265.9874331482422,1723.0486281940855) translate(-265.9874331482422,-1723.0486281940855)"><path fill="black" stroke="none" paint-order="stroke fill markers" d=" M 278.5529741482422 1716.7658576940855 L 265.9874331482422 1723.0486281940855 L 278.5529741482422 1729.3313986940855 Z"/></g></g><g><g/><path fill="none" stroke="black" paint-order="fill stroke markers" d=" M 190.59418714824218 484.12698672440473 L 541.8844139953125 484.12698672440473 L 541.8844139953125 790.9501424018237 L 190.59418714824218 790.9501424018237 L 190.59418714824218 484.12698672440473 Z" stroke-miterlimit="10" stroke-width="2.154092742857143" stroke-dasharray=""/><path fill="white" stroke="black" paint-order="fill stroke markers" d=" M 190.59418714824218 484.12698672440473 L 190.59418714824218 502.2213657644047 L 271.9181534864746 502.2213657644047 L 280.9653430064746 493.17417624440475 L 280.9653430064746 484.12698672440473 L 190.59418714824218 484.12698672440473" stroke-miterlimit="10" stroke-width="2.154092742857143" stroke-dasharray=""/><text fill="black" stroke="none" font-family="sans-serif" font-size="8.8pt" font-style="normal" font-weight="bold" text-decoration="normal" x="205.67283634824219" y="496.1899060844047" text-anchor="start" dominant-baseline="alphabetic" xml:space="preserve">success</text></g><g><g/><path fill="none" stroke="black" paint-order="fill stroke markers" d=" M 60.94045077529297 858.8040638018236 L 541.8844139953125 858.8040638018236 L 541.8844139953125 1278.5251835915024 L 60.94045077529297 1278.5251835915024 L 60.94045077529297 858.8040638018236 Z" stroke-miterlimit="10" stroke-width="2.154092742857143" stroke-dasharray=""/><path fill="white" stroke="black" paint-order="fill stroke markers" d=" M 60.94045077529297 858.8040638018236 L 60.94045077529297 876.8984428418237 L 134.24775070117187 876.8984428418237 L 143.29494022117186 867.8512533218236 L 143.29494022117186 858.8040638018236 L 60.94045077529297 858.8040638018236" stroke-miterlimit="10" stroke-width="2.154092742857143" stroke-dasharray=""/><text fill="black" stroke="none" font-family="sans-serif" font-size="8.8pt" font-style="normal" font-weight="bold" text-decoration="normal" x="76.01909997529297" y="870.8669831618237" text-anchor="start" dominant-baseline="alphabetic" xml:space="preserve">failure</text></g><g><g/><path fill="none" stroke="black" paint-order="fill stroke markers" d=" M 60.94045077529297 1346.3791049915023 L 457.2876166494141 1346.3791049915023 L 457.2876166494141 1790.9025495940855 L 60.94045077529297 1790.9025495940855 L 60.94045077529297 1346.3791049915023 Z" stroke-miterlimit="10" stroke-width="2.154092742857143" stroke-dasharray=""/><path fill="white" stroke="black" paint-order="fill stroke markers" d=" M 60.94045077529297 1346.3791049915023 L 60.94045077529297 1364.4734840315023 L 142.96441406176757 1364.4734840315023 L 152.01160358176756 1355.4262945115024 L 152.01160358176756 1346.3791049915023 L 60.94045077529297 1346.3791049915023" stroke-miterlimit="10" stroke-width="2.154092742857143" stroke-dasharray=""/><text fill="black" stroke="none" font-family="sans-serif" font-size="8.8pt" font-style="normal" font-weight="bold" text-decoration="normal" x="76.01909997529297" y="1358.4420243515024" text-anchor="start" dominant-baseline="alphabetic" xml:space="preserve">timeout</text></g></g><g/><g/><g/></g></svg>